# xmcd
#
# Track frame offsets:
#	150
#	27857
#	48225
#	74044
#	102223
#	125629
#	156220
#	178152
#	198270
#	222221
#	237358
#	261397
#	278811
#	295515
#
# Disc length: 4147 seconds
#
# Revision: 0
# Processed by: cddbd v1.5.2PL0 Copyright (c) Steve Scherf et al.
# Submitted via: EasyCDDAExtractor 2010.6.0.0
#
DISCID=d410310e
DTITLE=Viklicky, Frissell, Driscoll, Johnson - Okno a dvere
DYEAR=1900
DGENRE=
TTITLE0=Trochu fanky
TTITLE1=Zase zapomneli zavrit okno
TTITLE2=Siesta
TTITLE3=Jumbo Jet
TTITLE4=Boston
TTITLE5=Pisen pro Jana Hammera
TTITLE6=Jeste jednou slunce
TTITLE7=Kveten
TTITLE8=70. vychodni
TTITLE9=Asi by to tak slo
TTITLE10=Podzim
TTITLE11=Jed dvacitkou
TTITLE12=To jsou veci
TTITLE13=43 Joy street
EXTD=
EXTT0=
EXTT1=
EXTT2=
EXTT3=
EXTT4=
EXTT5=
EXTT6=
EXTT7=
EXTT8=
EXTT9=
EXTT10=
EXTT11=
EXTT12=
EXTT13=
PLAYORDER=
